ply
format ascii 1.0
comment VCGLIB generated
element vertex 866
property float x
property float y
property float z
element face 1728
property list uchar int vertex_indices
end_header
0 30 0 
20 -30 0 
15.3209 -30 12.8558 
12.8558 -30 15.3209 
6.8404 -30 18.7939 
3.47296 -30 19.6962 
-3.47296 -30 19.6962 
-10 -30 17.3205 
-12.8558 -30 15.3209 
-15.3209 -30 12.8558 
-18.7939 -30 6.8404 
-19.6962 -30 3.47296 
-20 -30 2.44929e-15 
-15.3209 -30 -12.8558 
-12.8558 -30 -15.3209 
-6.8404 -30 -18.7939 
-3.47296 -30 -19.6962 
-3.67394e-15 -30 -20 
3.47296 -30 -19.6962 
10 -30 -17.3205 
12.8558 -30 -15.3209 
15.3209 -30 -12.8558 
18.7939 -30 -6.8404 
19.6962 -30 -3.47296 
40 30 0 
39.3923 30 6.94593 
37.5877 30 13.6808 
34.641 30 20 
30.6418 30 25.7115 
25.7115 30 30.6418 
20 30 34.641 
13.6808 30 37.5877 
6.94593 30 39.3923 
2.44929e-15 30 40 
-6.94593 30 39.3923 
-13.6808 30 37.5877 
-20 30 34.641 
-25.7115 30 30.6418 
-30.6418 30 25.7115 
-34.641 30 20 
-37.5877 30 13.6808 
-39.3923 30 6.94593 
-40 30 4.89859e-15 
-39.3923 30 -6.94593 
-37.5877 30 -13.6808 
-34.641 30 -20 
-30.6418 30 -25.7115 
-25.7115 30 -30.6418 
-20 30 -34.641 
-13.6808 30 -37.5877 
-6.94593 30 -39.3923 
-7.34788e-15 30 -40 
6.94593 30 -39.3923 
13.6808 30 -37.5877 
20 30 -34.641 
25.7115 30 -30.6418 
30.6418 30 -25.7115 
34.641 30 -20 
37.5877 30 -13.6808 
39.3923 30 -6.94593 
33.1308 10 2.31531 
26.3628 -10 3.47296 
32.2254 10 8.03323 
30.3409 10 13.5071 
27.5344 10 18.5705 
21.0944 -10 16.1891 
23.8914 10 23.0697 
17.9627 -10 19.6062 
19.5224 10 26.8679 
10.1737 -10 24.5674 
9.15571 10 31.9246 
-2.31531 10 33.1308 
-8.03323 10 32.2254 
-7.99805 -10 25.3593 
-13.5071 10 30.3409 
-18.5705 10 27.5344 
-16.1891 -10 21.0944 
-23.0697 10 23.8914 
-19.6062 -10 17.9627 
-26.8679 10 19.5224 
-18.8742 -20 13.5705 
-24.5674 -10 10.1737 
-33.0295 10 3.47296 
-26.5654 -10 1.15765 
-33.1308 10 -2.31531 
-26.3628 -10 -3.47296 
-32.2254 10 -8.03323 
-30.3409 10 -13.5071 
-27.5344 10 -18.5705 
-21.0944 -10 -16.1891 
-23.8914 10 -23.0697 
-17.9627 -10 -19.6062 
-19.5224 10 -26.8679 
-10.1737 -10 -24.5674 
-9.15571 10 -31.9246 
2.31531 10 -33.1308 
8.03323 10 -32.2254 
7.99805 -10 -25.3593 
13.5071 10 -30.3409 
18.5705 10 -27.5344 
16.1891 -10 -21.0944 
23.0697 10 -23.8914 
19.6062 -10 -17.9627 
26.8679 10 -19.5224 
18.8742 -20 -13.5705 
24.5674 -10 -10.1737 
19.4706 -30 -4.31482 
33.0295 10 -3.47296 
26.5654 -10 -1.15765 
18.0572 -30 8.4202 
-18.0572 -30 -8.4202 
10.3134 30 38.49 
-10.3134 30 -38.49 
29.5443 0 5.20944 
28.1908 0 10.2606 
25.9807 0 15 
22.9813 0 19.2836 
19.2836 0 22.9813 
15 0 25.9807 
10.2606 0 28.1908 
5.20944 0 29.5443 
1.83697e-15 0 30 
-5.20944 0 29.5443 
-10.2606 0 28.1908 
-15 0 25.9807 
-19.2836 0 22.9813 
-22.9813 0 19.2836 
-25.9807 0 15 
-28.1908 0 10.2606 
-29.5443 0 5.20944 
-30 0 3.67394e-15 
-29.5443 0 -5.20944 
-28.1908 0 -10.2606 
-25.9807 0 -15 
-22.9813 0 -19.2836 
-19.2836 0 -22.9813 
-15 0 -25.9807 
-10.2606 0 -28.1908 
-5.20944 0 -29.5443 
-5.51091e-15 0 -30 
5.20944 0 -29.5443 
10.2606 0 -28.1908 
15 0 -25.9807 
19.2836 0 -22.9813 
22.9813 0 -19.2836 
25.9807 0 -15 
28.1908 0 -10.2606 
29.5443 0 -5.20944 
30 0 0 
7.26101 -30 10.4456 
7.6303 -30 18.4255 
-9.39612 -30 8.93474 
-18.4255 -30 7.6303 
-19.4706 -30 4.31482 
9.39612 -30 -8.93474 
15.3209 30 12.8558 
11.4197 30 21.0094 
8.82906 30 24.6807 
-12.8558 30 15.3209 
-21.0094 30 11.4197 
-16.1334 30 5.47849 
-15.3209 30 -12.8558 
-11.4197 30 -21.0094 
-8.82906 30 -24.6807 
12.8558 30 -15.3209 
21.0094 30 -11.4197 
29.6961 0 3.47297 
28.6419 0 8.57688 
26.7174 0 13.4202 
23.9811 0 17.8558 
20.5162 0 21.7488 
16.4279 0 24.9809 
11.8404 0 27.4541 
6.89317 0 29.0931 
1.73648 0 29.8481 
-3.47297 0 29.6961 
-8.57688 0 28.6419 
-13.4202 0 26.7174 
-17.8558 0 23.9811 
-21.7488 0 20.5162 
-24.9809 0 16.4279 
-27.4541 0 11.8404 
-29.0931 0 6.89317 
-29.8481 0 1.73648 
-29.6961 0 -3.47297 
-28.6419 0 -8.57688 
-26.7174 0 -13.4202 
-23.9811 0 -17.8558 
-20.5162 0 -21.7488 
-16.4279 0 -24.9809 
-11.8404 0 -27.4541 
-6.89317 0 -29.0931 
-1.73648 0 -29.8481 
3.47297 0 -29.6961 
8.57688 0 -28.6419 
13.4202 0 -26.7174 
17.8558 0 -23.9811 
21.7488 0 -20.5162 
24.9809 0 -16.4279 
27.4541 0 -11.8404 
29.0931 0 -6.89317 
29.8481 0 -1.73648 
24.5466 30 5.32008 
-5.65281 30 27.7878 
-30.5676 30 10.8177 
-25.737 30 -4.33608 
5.65281 30 -27.7878 
30.5676 30 -10.8177 
36.2615 20 4.63062 
23.0295 -20 3.47296 
34.9065 20 10.857 
22.0766 -20 7.41923 
32.4909 20 16.7535 
29.0881 20 22.141 
18.2076 -20 14.5224 
24.8015 20 26.8558 
15.4093 -20 17.4635 
19.7612 20 30.7544 
14.1205 20 33.7187 
8.05082 20 35.6585 
1.73648 20 36.5147 
0.578827 -20 23.2827 
-4.63062 20 36.2615 
-3.47296 -20 23.0295 
-10.857 20 34.9065 
-7.41923 -20 22.0766 
-16.7535 20 32.4909 
-11.1401 -20 20.4528 
-22.141 20 29.0881 
-14.5224 -20 18.2076 
-26.8558 20 24.8015 
-17.4635 -20 15.4093 
-30.7544 20 19.7612 
-33.7187 20 14.1205 
-35.6585 20 8.05082 
-36.5147 20 1.73648 
-23.2827 -20 0.578827 
-36.2615 20 -4.63062 
-23.0295 -20 -3.47296 
-34.9065 20 -10.857 
-22.0766 -20 -7.41923 
-32.4909 20 -16.7535 
-29.0881 20 -22.141 
-18.2076 -20 -14.5224 
-24.8015 20 -26.8558 
-15.4093 -20 -17.4635 
-19.7612 20 -30.7544 
-14.1205 20 -33.7187 
-8.05082 20 -35.6585 
-1.73648 20 -36.5147 
-0.578827 -20 -23.2827 
4.63062 20 -36.2615 
10.857 20 -34.9065 
7.41923 -20 -22.0766 
16.7535 20 -32.4909 
11.1401 -20 -20.4528 
22.141 20 -29.0881 
14.5224 -20 -18.2076 
26.8558 20 -24.8015 
17.4635 -20 -15.4093 
30.7544 20 -19.7612 
33.7187 20 -14.1205 
35.6585 20 -8.05082 
36.5147 20 -1.73648 
23.2827 -20 -0.578827 
30.5676 30 10.8177 
10.8805 30 7.61858 
21.0635 30 24.6522 
6.61145 30 29.787 
-4.1161 30 22.1854 
-10.8177 30 30.5676 
-7.61858 30 10.8805 
-24.6522 30 21.0635 
-29.787 30 6.61145 
-32.424 30 0.289414 
-30.5676 30 -10.8177 
-10.8805 30 -7.61858 
-21.0635 30 -24.6522 
-6.61145 30 -29.787 
4.1161 30 -22.1854 
10.8177 30 -30.5676 
7.61858 30 -10.8805 
24.6522 30 -21.0635 
24.116 30 -4.36084 
26.5654 -10 1.15766 
36.5654 20 1.15766 
23.1814 -20 1.73648 
32.8776 10 5.20945 
25.9608 -10 5.75309 
35.8088 20 7.48958 
22.5277 -20 5.73551 
31.4735 10 10.8394 
24.5674 -10 10.1737 
33.9643 20 13.5939 
18.7939 -30 6.84039 
29.1131 10 16.1401 
22.4275 -10 14.2853 
31.0877 20 19.2853 
19.2075 -20 13.0946 
25.8681 10 20.9503 
19.6062 -10 17.9627 
27.2666 20 24.3906 
16.6418 -20 16.231 
21.8371 10 25.124 
16.1891 -10 21.0944 
22.617 20 28.7548 
17.1426 10 28.5342 
12.2801 -10 23.5851 
17.2801 20 32.2454 
10.0869 -20 20.9439 
11.9273 10 31.0775 
7.99806 -10 25.3593 
11.4183 20 34.7562 
6.29675 -20 22.3773 
6.34951 10 32.6766 
3.47296 -10 26.3629 
5.20945 20 36.2109 
2.31531 -20 23.1308 
0.578827 10 33.2827 
-1.15766 -10 26.5654 
-1.15766 20 36.5654 
-1.73648 -20 23.1814 
-5.20945 10 32.8776 
-5.75309 -10 25.9608 
-7.48958 20 35.8088 
-5.73551 -20 22.5277 
-10.8394 10 31.4735 
-10.1737 -10 24.5674 
-13.5939 20 33.9643 
-9.56027 -20 21.1895 
-16.1401 10 29.1131 
-14.2853 -10 22.4275 
-19.2853 20 31.0877 
-13.0946 -20 19.2075 
-20.9503 10 25.8681 
-17.9627 -10 19.6062 
-24.3906 20 27.2666 
-16.231 -20 16.6418 
-25.124 10 21.8371 
-21.0944 -10 16.1891 
-28.7548 20 22.617 
-28.5342 10 17.1426 
-23.5851 -10 12.2801 
-32.2454 20 17.2801 
-20.9439 -20 10.0869 
-31.0775 10 11.9273 
-25.3593 -10 7.99806 
-34.7562 20 11.4183 
-22.3773 -20 6.29675 
-32.6766 10 6.34951 
-26.3629 -10 3.47296 
-36.2109 20 5.20945 
-33.2827 10 0.578827 
-26.5654 -10 -1.15766 
-36.5654 20 -1.15766 
-23.1814 -20 -1.73648 
-32.8776 10 -5.20945 
-25.9608 -10 -5.75309 
-35.8088 20 -7.48958 
-22.5277 -20 -5.73551 
-31.4735 10 -10.8394 
-24.5674 -10 -10.1737 
-33.9643 20 -13.5939 
-18.7939 -30 -6.84039 
-29.1131 10 -16.1401 
-22.4275 -10 -14.2853 
-31.0877 20 -19.2853 
-19.2075 -20 -13.0946 
-25.8681 10 -20.9503 
-19.6062 -10 -17.9627 
-27.2666 20 -24.3906 
-16.6418 -20 -16.231 
-21.8371 10 -25.124 
-16.1891 -10 -21.0944 
-22.617 20 -28.7548 
-17.1426 10 -28.5342 
-12.2801 -10 -23.5851 
-17.2801 20 -32.2454 
-10.0869 -20 -20.9439 
-11.9273 10 -31.0775 
-7.99806 -10 -25.3593 
-11.4183 20 -34.7562 
-6.29675 -20 -22.3773 
-6.34951 10 -32.6766 
-3.47296 -10 -26.3629 
-5.20945 20 -36.2109 
-2.31531 -20 -23.1308 
-0.578827 10 -33.2827 
1.15766 -10 -26.5654 
1.15766 20 -36.5654 
1.73648 -20 -23.1814 
5.20945 10 -32.8776 
5.75309 -10 -25.9608 
7.48958 20 -35.8088 
5.73551 -20 -22.5277 
10.8394 10 -31.4735 
10.1737 -10 -24.5674 
13.5939 20 -33.9643 
9.56027 -20 -21.1895 
16.1401 10 -29.1131 
14.2853 -10 -22.4275 
19.2853 20 -31.0877 
13.0946 -20 -19.2075 
20.9503 10 -25.8681 
17.9627 -10 -19.6062 
24.3906 20 -27.2666 
16.231 -20 -16.6418 
25.124 10 -21.8371 
21.0944 -10 -16.1891 
28.7548 20 -22.617 
28.5342 10 -17.1426 
23.5851 -10 -12.2801 
32.2454 20 -17.2801 
20.9439 -20 -10.0869 
31.0775 10 -11.9273 
25.3593 -10 -7.99806 
34.7562 20 -11.4183 
22.3773 -20 -6.29675 
32.6766 10 -6.34951 
26.3629 -10 -3.47296 
36.2109 20 -5.20945 
33.2827 10 -0.578827 
22.0796 30 2.42384 
24.111 30 13.6072 
24.0664 30 22.272 
16.8404 30 36.1143 
-13.6072 30 24.111 
-22.272 30 24.0664 
-24.111 30 -13.6072 
-24.0664 30 -22.272 
-16.8404 30 -36.1143 
13.6072 30 -24.111 
22.272 30 -24.0664 
36.4135 20 2.89414 
27.9535 -5 4.3412 
35.3577 20 9.1733 
33.2276 20 15.1737 
24.3682 -7.5 12.5651 
30.0879 20 20.7131 
22.0379 -5 17.7364 
26.034 20 25.6232 
18.6232 -5 21.2938 
21.1891 20 29.7547 
14.2853 -10 22.4275 
9.36212 -12.5 24.0299 
9.73454 20 35.2073 
4.61303 -20 22.8285 
3.47296 20 36.3628 
-2.89414 20 36.4135 
-9.1733 20 35.3577 
-9.12933 -5 26.775 
-15.1737 20 33.2276 
-12.5651 -7.5 24.3682 
-20.7131 20 30.0879 
-17.7364 -5 22.0379 
-25.6232 20 26.034 
-21.2938 -5 18.6232 
-29.7547 20 21.1891 
-24.2041 -5 14.6426 
-29.8497 10 14.5603 
-24.0299 -12.5 9.36212 
-35.2073 20 9.73454 
-25.9608 -10 5.7531 
-36.3628 20 3.47296 
-28.2827 -5 0.578827 
-36.4135 20 -2.89414 
-27.9535 -5 -4.3412 
-35.3577 20 -9.1733 
-33.2276 20 -15.1737 
-24.3682 -7.5 -12.5651 
-30.0879 20 -20.7131 
-22.0379 -5 -17.7364 
-26.034 20 -25.6232 
-18.6232 -5 -21.2938 
-21.1891 20 -29.7547 
-14.2853 -10 -22.4275 
-9.36212 -12.5 -24.0299 
-9.73454 20 -35.2073 
-4.61303 -20 -22.8285 
-3.47296 20 -36.3628 
2.89414 20 -36.4135 
9.1733 20 -35.3577 
9.12933 -5 -26.775 
15.1737 20 -33.2276 
12.5651 -7.5 -24.3682 
20.7131 20 -30.0879 
17.7364 -5 -22.0379 
25.6232 20 -26.034 
21.2938 -5 -18.6232 
29.7547 20 -21.1891 
24.2041 -5 -14.6426 
29.8497 10 -14.5603 
24.0299 -12.5 -9.36212 
35.2073 20 -9.73454 
36.3628 20 -3.47296 
28.2827 -5 -0.578827 
-11.4279 -30 -16.3207 
18.1493 30 8.22272 
12.8809 30 14.1971 
-14.1971 30 12.8809 
-18.1493 30 -8.22272 
-12.8809 30 -14.1971 
14.1971 30 -12.8809 
31.4135 5 2.89414 
31.5654 5 1.15766 
23.1055 -20 2.60472 
28.0295 -5 3.47296 
30.4337 5 8.30506 
30.8848 5 6.62134 
22.3022 -20 6.57737 
26.5339 -6.25 8.42558 
28.5292 5 13.4636 
29.2658 5 11.8838 
25.7578 5 18.2131 
26.7576 5 16.7853 
18.7076 -20 13.8085 
22.5378 -5 17.0224 
22.2038 5 22.4093 
23.4364 5 21.1767 
16.0255 -20 16.8473 
19.2395 -5 20.6775 
17.9752 5 25.9244 
19.403 5 24.9246 
12.5 -15 21.6506 
13.5705 -20 18.8742 
13.8803 7.5 29.2508 
9.29697 -20 21.3123 
11.0071 -5 26.0107 
8.02444 5 30.5089 
9.70815 5 30.0577 
5.45489 -20 22.6029 
6.32313 -5 27.527 
3.03884 7.5 32.2341 
0.578827 -5 28.2827 
1.44707 -5 28.2067 
-2.89414 5 31.4135 
-1.15766 5 31.5654 
-2.60472 -20 23.1055 
-4.3412 -5 27.9535 
-8.30506 5 30.4337 
-6.62134 5 30.8848 
-6.57737 -20 22.3022 
-8.28747 -5 27.0006 
-13.4636 5 28.5292 
-11.8838 5 29.2658 
-18.2131 5 25.7578 
-16.7853 5 26.7576 
-11.4279 -30 16.3207 
-17.0224 -5 22.5378 
-22.4093 5 22.2038 
-21.1767 5 23.4364 
-16.8473 -20 16.0255 
-20.6775 -5 19.2395 
-25.9244 5 17.9752 
-24.9246 5 19.403 
-21.6506 -15 12.5 
-28.6519 5 13.2003 
-27.9152 5 14.7801 
-21.3123 -20 9.29697 
-26.0107 -5 11.0071 
-31.9246 10 9.15571 
-30.0577 5 9.70815 
-31.4388 5 2.60472 
-31.2869 5 4.3412 
-23.2067 -20 1.44707 
-28.2067 -5 1.44707 
-31.4135 5 -2.89414 
-31.5654 5 -1.15766 
-23.1055 -20 -2.60472 
-28.0295 -5 -3.47296 
-30.4337 5 -8.30506 
-30.8848 5 -6.62134 
-22.3022 -20 -6.57737 
-26.5339 -6.25 -8.42558 
-28.5292 5 -13.4636 
-29.2658 5 -11.8838 
-25.7578 5 -18.2131 
-26.7576 5 -16.7853 
-18.7076 -20 -13.8085 
-22.5378 -5 -17.0224 
-22.2038 5 -22.4093 
-23.4364 5 -21.1767 
-16.0255 -20 -16.8473 
-19.2395 -5 -20.6775 
-17.9752 5 -25.9244 
-19.403 5 -24.9246 
-12.5 -15 -21.6506 
-13.5705 -20 -18.8742 
-13.8803 7.5 -29.2508 
-9.29697 -20 -21.3123 
-11.0071 -5 -26.0107 
-8.02444 5 -30.5089 
-9.70815 5 -30.0577 
-5.45489 -20 -22.6029 
-6.32313 -5 -27.527 
-3.03884 7.5 -32.2341 
-0.578827 -5 -28.2827 
-1.44707 -5 -28.2067 
2.89414 5 -31.4135 
1.15766 5 -31.5654 
2.60472 -20 -23.1055 
4.3412 -5 -27.9535 
8.30506 5 -30.4337 
6.62134 5 -30.8848 
6.57737 -20 -22.3022 
8.28747 -5 -27.0006 
13.4636 5 -28.5292 
11.8838 5 -29.2658 
18.2131 5 -25.7578 
16.7853 5 -26.7576 
11.4279 -30 -16.3207 
17.0224 -5 -22.5378 
22.4093 5 -22.2038 
21.1767 5 -23.4364 
16.8473 -20 -16.0255 
20.6775 -5 -19.2395 
25.9244 5 -17.9752 
24.9246 5 -19.403 
21.6506 -15 -12.5 
28.6519 5 -13.2003 
27.9152 5 -14.7801 
21.3123 -20 -9.29697 
26.0107 -5 -11.0071 
31.9246 10 -9.15571 
30.0577 5 -9.70815 
27.527 -5 -6.32313 
31.4388 5 -2.60472 
31.2869 5 -4.3412 
23.2067 -20 -1.44707 
28.2067 -5 -1.44707 
19.8861 -30 1.30236 
19.7721 -30 2.60472 
19.6962 -30 3.47297 
19.1323 -30 5.57761 
16.3207 -30 11.4279 
13.7802 -30 14.3965 
11.4279 -30 16.3207 
10 -30 17.3205 
4.94622 -30 19.3014 
2.60472 -30 19.7721 
5.49574e-07 -30 20 
-4.73575 -30 19.3578 
-8.02525 -30 18.2414 
-14.7046 -30 13.4721 
-16.3207 -30 11.4279 
-17.3205 -30 10 
-19.7721 -30 2.60472 
-19.924 -30 0.86824 
-19.8861 -30 -1.30236 
-19.7721 -30 -2.60472 
-19.6962 -30 -3.47297 
-19.1323 -30 -5.57761 
-16.3207 -30 -11.4279 
-13.7802 -30 -14.3965 
-10 -30 -17.3205 
-7.6303 -30 -18.4255 
-4.31482 -30 -19.4706 
-2.60472 -30 -19.7721 
2.1706 -30 -19.8101 
4.73575 -30 -19.3578 
8.02525 -30 -18.2414 
14.7046 -30 -13.4721 
16.3207 -30 -11.4279 
17.3205 -30 -10 
18.4255 -30 -7.6303 
19.7721 -30 -2.60472 
19.924 -30 -0.86824 
39.5442 30 5.20945 
39.8481 30 1.73648 
38.49 30 10.3134 
38.9411 30 8.62965 
35.746 30 17.6303 
32.1415 30 23.5697 
33.6412 30 21.4279 
29.4092 30 26.9441 
21.4279 30 33.6412 
22.8558 30 32.6414 
15.2606 30 36.851 
8.62965 30 38.9411 
11.9971 30 38.0388 
2.60472 30 39.7721 
5.20945 30 39.5442 
-5.20945 30 39.5442 
-1.73648 30 39.8481 
-10.3134 30 38.49 
-8.62965 30 38.9411 
-16.8404 30 36.1143 
-23.5697 30 32.1415 
-21.4279 30 33.6412 
-26.9441 30 29.4092 
-33.6412 30 21.4279 
-31.6416 30 24.2836 
-36.1143 30 16.8404 
-38.9411 30 8.62965 
-38.49 30 10.3134 
-39.7721 30 2.60472 
-39.5442 30 5.20945 
-39.5442 30 -5.20945 
-39.8481 30 -1.73648 
-38.49 30 -10.3134 
-38.9411 30 -8.62965 
-35.746 30 -17.6303 
-32.1415 30 -23.5697 
-33.6412 30 -21.4279 
-29.4092 30 -26.9441 
-21.4279 30 -33.6412 
-22.8558 30 -32.6414 
-15.2606 30 -36.851 
-8.62965 30 -38.9411 
-11.9971 30 -38.0388 
-2.60472 30 -39.7721 
-5.20945 30 -39.5442 
5.20945 30 -39.5442 
1.73648 30 -39.8481 
10.3134 30 -38.49 
8.62965 30 -38.9411 
16.8404 30 -36.1143 
23.5697 30 -32.1415 
21.4279 30 -33.6412 
26.9441 30 -29.4092 
33.6412 30 -21.4279 
31.6416 30 -24.2836 
36.1143 30 -16.8404 
38.9411 30 -8.62965 
38.49 30 -10.3134 
39.5442 30 -5.20945 
34.4683 15 6.07769 
24.6202 -15 4.3412 
32.8893 15 11.9707 
23.4923 -15 8.5505 
30.3109 15 17.5 
21.6506 -15 12.5 
26.8116 15 22.4976 
19.1511 -15 16.0697 
22.4976 15 26.8116 
16.0697 -15 19.1511 
17.5 15 30.3109 
11.9707 15 32.8893 
8.5505 -15 23.4923 
6.07769 15 34.4683 
4.3412 -15 24.6202 
2.14313e-15 15 35 
1.53081e-15 -15 25 
-6.07769 15 34.4683 
-4.3412 -15 24.6202 
-11.9707 15 32.8893 
-6.84041 -30 18.7939 
-17.5 15 30.3109 
-12.5 -15 21.6506 
-22.4976 15 26.8116 
-16.0697 -15 19.1511 
-26.8116 15 22.4976 
-19.1511 -15 16.0697 
-30.3109 15 17.5 
-32.8893 15 11.9707 
-23.4923 -15 8.5505 
-34.4683 15 6.07769 
-24.6202 -15 4.3412 
-35 15 4.28627e-15 
-25 -15 3.06161e-15 
-34.4683 15 -6.07769 
-24.6202 -15 -4.3412 
-32.8893 15 -11.9707 
-23.4923 -15 -8.5505 
-30.3109 15 -17.5 
-21.6506 -15 -12.5 
-26.8116 15 -22.4976 
-19.1511 -15 -16.0697 
-22.4976 15 -26.8116 
-16.0697 -15 -19.1511 
-17.5 15 -30.3109 
-11.9707 15 -32.8893 
-8.5505 -15 -23.4923 
-6.07769 15 -34.4683 
-4.3412 -15 -24.6202 
-6.4294e-15 15 -35 
-4.59243e-15 -15 -25 
6.07769 15 -34.4683 
4.3412 -15 -24.6202 
11.9707 15 -32.8893 
6.84041 -30 -18.7939 
17.5 15 -30.3109 
12.5 -15 -21.6506 
22.4976 15 -26.8116 
16.0697 -15 -19.1511 
26.8116 15 -22.4976 
19.1511 -15 -16.0697 
30.3109 15 -17.5 
32.8893 15 -11.9707 
23.4923 -15 -8.5505 
34.4683 15 -6.07769 
24.6202 -15 -4.3412 
35 15 0 
25 -15 0 
4.11658 30 13.4729 
-4.11658 30 -13.4729 
34.5442 15 5.20945 
24.8481 -15 1.73648 
33.1148 15 11.1288 
24.1691 -15 6.02492 
30.6792 15 16.7101 
27.3115 15 21.7836 
17.3205 -30 10 
23.1138 15 26.1953 
17.9186 -15 17.3023 
18.214 15 29.811 
14.6418 -15 20.1509 
12.7606 15 32.5209 
10.9202 -15 22.3873 
6.91955 15 34.2427 
6.86678 -15 23.9435 
0.86824 15 34.924 
2.60472 -15 24.7721 
-5.20945 15 34.5442 
-1.73648 -15 24.8481 
-11.1288 15 33.1148 
-6.02492 -15 24.1691 
-16.7101 15 30.6792 
-10.1303 -15 22.7557 
-21.7836 15 27.3115 
-13.9279 -15 20.6508 
-26.1953 15 23.1138 
-17.3023 -15 17.9186 
-29.811 15 18.214 
-20.1509 -15 14.6418 
-32.5209 15 12.7606 
-22.3873 -15 10.9202 
-34.2427 15 6.91955 
-23.9435 -15 6.86678 
-34.924 15 0.86824 
-24.7721 -15 2.60472 
-34.5442 15 -5.20945 
-24.8481 -15 -1.73648 
-33.1148 15 -11.1288 
-24.1691 -15 -6.02492 
-30.6792 15 -16.7101 
-27.3115 15 -21.7836 
-17.3205 -30 -10 
-23.1138 15 -26.1953 
-17.9186 -15 -17.3023 
-18.214 15 -29.811 
-14.6418 -15 -20.1509 
-12.7606 15 -32.5209 
-10.9202 -15 -22.3873 
-6.91955 15 -34.2427 
-6.86678 -15 -23.9435 
-0.86824 15 -34.924 
-2.60472 -15 -24.7721 
5.20945 15 -34.5442 
1.73648 -15 -24.8481 
11.1288 15 -33.1148 
6.02492 -15 -24.1691 
16.7101 15 -30.6792 
10.1303 -15 -22.7557 
21.7836 15 -27.3115 
13.9279 -15 -20.6508 
26.1953 15 -23.1138 
17.3023 -15 -17.9186 
29.811 15 -18.214 
20.1509 -15 -14.6418 
32.5209 15 -12.7606 
22.3873 -15 -10.9202 
34.2427 15 -6.91955 
23.9435 -15 -6.86678 
34.924 15 -0.86824 
24.7721 -15 -2.60472 
3 106 635 149 
3 153 653 496 
3 106 655 657 
3 422 667 283 
3 423 671 265 
3 675 676 267 
3 268 111 157 
3 794 680 268 
3 426 686 270 
3 690 691 272 
3 273 694 204 
3 160 695 273 
3 205 697 274 
3 428 701 275 
3 705 706 277 
3 278 112 163 
3 795 710 278 
3 431 716 280 
3 720 721 282 
3 283 724 207 
3 433 667 208 
3 434 113 209 
3 435 669 210 
3 510 114 211 
3 436 671 212 
3 437 115 731 
3 438 672 213 
3 439 116 214 
3 440 674 215 
3 441 117 216 
3 442 676 217 
3 443 118 523 
3 525 425 218 
3 445 111 219 
3 447 680 220 
3 533 121 221 
3 448 682 222 
3 538 122 223 
3 449 684 224 
3 450 123 225 
3 451 686 226 
3 452 124 227 
3 453 687 228 
3 454 125 229 
3 455 689 230 
3 456 126 231 
3 457 691 232 
3 458 127 555 
3 459 692 233 
3 461 694 234 
3 462 129 757 
3 463 695 235 
3 464 130 236 
3 465 697 237 
3 466 131 238 
3 467 699 239 
3 573 132 240 
3 468 701 241 
3 469 133 765 
3 470 702 242 
3 471 134 243 
3 472 704 244 
3 473 135 245 
3 474 706 246 
3 475 136 586 
3 588 430 247 
3 477 112 248 
3 479 710 249 
3 596 139 250 
3 480 712 251 
3 601 140 778 
3 481 714 252 
3 482 141 253 
3 483 716 254 
3 484 142 255 
3 485 717 256 
3 486 143 257 
3 487 719 258 
3 488 144 259 
3 489 721 260 
3 490 145 618 
3 491 722 261 
3 493 724 262 
3 494 725 263 
3 495 148 264 
3 106 657 154 
3 497 265 202 
3 155 424 423 
3 794 268 157 
3 269 270 203 
3 158 427 426 
3 160 204 159 
3 205 274 160 
3 500 275 205 
3 161 429 428 
3 795 278 163 
3 279 280 206 
3 164 432 431 
3 283 207 165 
3 284 503 166 
3 148 285 504 
3 286 505 630 
3 166 287 506 
3 288 507 167 
3 113 289 508 
3 290 509 633 
3 167 291 510 
3 292 511 168 
3 114 293 512 
3 294 437 109 
3 168 295 437 
3 296 513 169 
3 115 297 514 
3 298 515 634 
3 169 299 516 
3 300 517 170 
3 116 301 518 
3 302 519 635 
3 170 303 520 
3 304 521 171 
3 117 305 522 
3 524 523 636 
3 171 306 524 
3 307 525 172 
3 118 308 525 
3 309 526 150 
3 172 310 527 
3 311 528 173 
3 119 312 529 
3 313 530 638 
3 173 314 531 
3 315 532 174 
3 120 316 532 
3 317 533 639 
3 174 318 534 
3 319 535 175 
3 121 320 536 
3 321 537 6 
3 175 322 538 
3 323 539 176 
3 122 324 540 
3 325 541 641 
3 176 326 542 
3 327 543 177 
3 123 328 544 
3 329 452 642 
3 177 330 452 
3 331 545 178 
3 124 332 546 
3 178 334 548 
3 335 549 179 
3 125 336 550 
3 337 551 643 
3 179 338 552 
3 339 553 180 
3 126 340 554 
3 80 555 644 
3 180 341 80 
3 342 556 181 
3 127 343 557 
3 344 558 152 
3 181 345 559 
3 346 560 182 
3 128 347 561 
3 348 757 153 
3 182 349 462 
3 350 562 183 
3 129 351 563 
3 830 564 646 
3 183 352 565 
3 353 566 184 
3 130 354 567 
3 355 568 648 
3 184 356 569 
3 357 570 185 
3 131 358 571 
3 359 572 651 
3 185 360 573 
3 361 574 186 
3 132 362 575 
3 363 469 110 
3 186 364 469 
3 365 576 187 
3 133 366 577 
3 367 578 652 
3 187 368 579 
3 369 580 188 
3 134 370 581 
3 371 582 653 
3 188 372 583 
3 373 584 189 
3 135 374 585 
3 587 586 496 
3 189 375 587 
3 376 588 190 
3 136 377 588 
3 378 589 655 
3 190 379 590 
3 380 591 191 
3 137 381 592 
3 382 593 656 
3 191 383 594 
3 384 595 192 
3 138 385 595 
3 386 596 657 
3 192 387 597 
3 388 598 193 
3 139 389 599 
3 390 600 658 
3 193 391 601 
3 392 602 194 
3 140 393 603 
3 394 604 659 
3 194 395 605 
3 396 606 195 
3 141 397 607 
3 398 484 660 
3 195 399 484 
3 400 608 196 
3 142 401 609 
3 196 403 611 
3 404 612 197 
3 143 405 613 
3 406 614 661 
3 197 407 615 
3 408 616 198 
3 144 409 617 
3 104 618 662 
3 198 410 104 
3 411 619 199 
3 145 412 620 
3 413 621 664 
3 199 414 622 
3 415 623 200 
3 146 416 624 
3 200 418 625 
3 419 626 201 
3 147 420 627 
3 865 628 665 
3 201 421 629 
3 630 209 631 
3 106 632 633 
3 106 294 109 
3 109 731 802 
3 106 802 634 
3 149 637 150 
3 639 221 640 
3 638 640 6 
3 151 645 152 
3 646 236 647 
3 648 238 649 
3 153 650 651 
3 153 363 110 
3 110 765 837 
3 153 837 652 
3 106 654 655 
3 154 663 664 
3 665 264 666 
3 285 668 667 
3 289 670 669 
3 297 673 672 
3 157 677 425 
3 268 678 111 
3 312 679 111 
3 316 681 680 
3 320 683 682 
3 324 685 684 
3 332 688 687 
3 273 693 694 
3 351 696 695 
3 354 698 697 
3 358 700 699 
3 366 703 702 
3 163 707 430 
3 278 708 112 
3 381 709 112 
3 385 711 710 
3 389 713 712 
3 393 715 714 
3 401 718 717 
3 283 723 724 
3 287 726 113 
3 727 113 288 
3 291 728 114 
3 729 114 292 
3 295 730 115 
3 731 115 296 
3 299 732 116 
3 733 116 300 
3 303 734 117 
3 735 117 304 
3 306 736 118 
3 523 118 307 
3 310 737 119 
3 738 119 311 
3 314 739 120 
3 740 120 315 
3 318 741 121 
3 742 121 319 
3 322 743 122 
3 744 122 323 
3 326 745 123 
3 746 123 327 
3 330 747 124 
3 748 124 331 
3 334 749 125 
3 750 125 335 
3 338 751 126 
3 752 126 339 
3 341 753 127 
3 555 127 342 
3 345 754 128 
3 755 128 346 
3 349 756 129 
3 757 129 350 
3 352 758 130 
3 759 130 353 
3 356 760 131 
3 761 131 357 
3 360 762 132 
3 763 132 361 
3 364 764 133 
3 765 133 365 
3 368 766 134 
3 767 134 369 
3 372 768 135 
3 769 135 373 
3 375 770 136 
3 586 136 376 
3 379 771 137 
3 772 137 380 
3 383 773 138 
3 774 138 384 
3 387 775 139 
3 776 139 388 
3 391 777 140 
3 778 140 392 
3 395 779 141 
3 780 141 396 
3 399 781 142 
3 782 142 400 
3 403 783 143 
3 784 143 404 
3 407 785 144 
3 786 144 408 
3 410 787 145 
3 618 145 411 
3 414 788 146 
3 789 146 415 
3 418 790 147 
3 791 147 419 
3 421 792 148 
3 793 148 284 
3 498 155 266 
3 794 156 498 
3 499 158 271 
3 160 159 499 
3 501 161 276 
3 795 162 501 
3 502 164 281 
3 283 165 502 
3 166 208 796 
3 797 166 286 
3 167 210 798 
3 799 167 290 
3 168 212 800 
3 169 213 801 
3 802 169 298 
3 170 215 803 
3 804 170 302 
3 171 217 805 
3 806 171 524 
3 172 218 807 
3 808 172 309 
3 173 219 809 
3 810 173 313 
3 174 220 811 
3 812 174 317 
3 175 222 813 
3 814 175 321 
3 176 224 815 
3 816 176 325 
3 177 226 817 
3 818 177 329 
3 178 228 819 
3 820 178 333 
3 179 230 821 
3 822 179 337 
3 180 232 823 
3 824 180 80 
3 181 233 825 
3 826 181 344 
3 182 234 827 
3 828 182 348 
3 183 235 829 
3 184 237 831 
3 832 184 355 
3 185 239 833 
3 834 185 359 
3 186 241 835 
3 187 242 836 
3 837 187 367 
3 188 244 838 
3 839 188 371 
3 189 246 840 
3 841 189 587 
3 190 247 842 
3 843 190 378 
3 191 248 844 
3 845 191 382 
3 192 249 846 
3 847 192 386 
3 193 251 848 
3 849 193 390 
3 194 252 850 
3 851 194 394 
3 195 254 852 
3 853 195 398 
3 196 256 854 
3 855 196 402 
3 197 258 856 
3 857 197 406 
3 198 260 858 
3 859 198 104 
3 199 261 860 
3 861 199 413 
3 200 262 862 
3 863 200 417 
3 201 263 864 
3 106 631 632 
3 106 633 294 
3 106 634 2 
3 149 635 3 
3 149 636 637 
3 638 641 746 
3 638 642 7 
3 151 547 8 
3 151 643 9 
3 151 644 645 
3 153 647 12 
3 153 649 650 
3 153 651 363 
3 153 652 13 
3 496 653 14 
3 106 496 654 
3 657 655 15 
3 657 656 16 
3 657 658 18 
3 657 659 780 
3 657 660 19 
3 154 610 20 
3 154 661 21 
3 154 662 663 
3 106 664 22 
3 106 666 1 
3 283 668 24 
3 202 670 25 
3 265 671 26 
3 423 673 27 
3 424 674 28 
3 267 676 29 
3 156 425 30 
3 157 679 31 
3 268 681 32 
3 269 683 33 
3 203 685 34 
3 270 686 35 
3 426 688 36 
3 427 689 37 
3 272 691 38 
3 159 692 39 
3 204 694 40 
3 273 696 41 
3 274 698 42 
3 205 700 43 
3 275 701 44 
3 428 703 45 
3 429 704 46 
3 277 706 47 
3 162 430 48 
3 163 709 49 
3 278 711 50 
3 279 713 51 
3 206 715 52 
3 280 716 53 
3 431 718 54 
3 432 719 55 
3 282 721 56 
3 165 722 57 
3 207 724 58 
3 283 725 59 
3 208 667 25 
3 503 60 208 
3 209 727 632 
3 505 61 209 
3 210 669 26 
3 507 62 210 
3 211 729 294 
3 509 510 211 
3 212 671 27 
3 511 63 212 
3 213 672 28 
3 513 64 213 
3 214 733 2 
3 515 65 214 
3 215 674 29 
3 517 66 215 
3 216 735 3 
3 519 67 216 
3 217 675 30 
3 521 68 217 
3 218 677 31 
3 444 738 4 
3 526 69 444 
3 219 678 32 
3 528 70 219 
3 446 740 5 
3 530 531 446 
3 220 680 33 
3 221 742 640 
3 222 682 34 
3 535 71 222 
3 223 744 6 
3 537 538 223 
3 224 684 35 
3 539 72 224 
3 541 73 225 
3 226 686 36 
3 543 74 226 
3 227 748 7 
3 228 687 37 
3 545 75 228 
3 229 750 8 
3 547 76 229 
3 230 689 38 
3 549 77 230 
3 231 752 9 
3 551 78 231 
3 232 690 39 
3 553 79 232 
3 233 692 40 
3 556 459 233 
3 460 755 10 
3 558 81 460 
3 234 693 41 
3 235 695 42 
3 562 82 235 
3 236 759 12 
3 564 83 236 
3 237 697 43 
3 566 84 237 
3 238 761 650 
3 568 85 238 
3 239 699 44 
3 570 86 239 
3 240 763 363 
3 572 573 240 
3 241 701 45 
3 574 87 241 
3 242 702 46 
3 576 88 242 
3 243 767 13 
3 578 89 243 
3 244 704 47 
3 580 90 244 
3 245 769 14 
3 582 91 245 
3 246 705 48 
3 584 92 246 
3 247 707 49 
3 476 772 15 
3 589 93 476 
3 248 708 50 
3 591 94 248 
3 478 774 16 
3 593 594 478 
3 249 710 51 
3 250 776 17 
3 251 712 52 
3 598 95 251 
3 600 601 778 
3 252 714 53 
3 602 96 252 
3 604 97 253 
3 254 716 54 
3 606 98 254 
3 255 782 19 
3 256 717 55 
3 608 99 256 
3 257 784 20 
3 610 100 257 
3 258 719 56 
3 612 101 258 
3 259 786 21 
3 614 102 259 
3 260 720 57 
3 616 103 260 
3 261 722 58 
3 619 491 261 
3 492 789 22 
3 621 105 492 
3 262 723 59 
3 106 791 23 
3 263 725 24 
3 626 107 263 
3 264 793 1 
3 628 108 264 
3 106 149 638 
3 106 638 151 
3 106 151 153 
3 106 153 496 
3 0 422 283 
3 0 202 422 
3 202 265 669 
3 0 497 202 
3 0 266 497 
3 498 267 424 
3 156 30 675 
3 156 157 425 
3 0 271 269 
3 499 272 427 
3 159 39 690 
3 159 204 692 
3 205 275 699 
3 0 500 205 
3 0 276 500 
3 501 277 429 
3 162 48 705 
3 162 163 430 
3 0 281 279 
3 502 282 432 
3 165 57 720 
3 165 207 722 
3 1 284 797 
3 284 504 60 
3 792 24 285 
3 60 285 433 
3 1 286 630 
3 286 506 61 
3 796 25 287 
3 61 287 434 
3 632 288 799 
3 288 508 62 
3 726 25 289 
3 62 289 435 
3 798 26 291 
3 292 512 63 
3 728 26 293 
3 63 293 436 
3 800 27 295 
3 296 514 64 
3 730 27 297 
3 64 297 438 
3 298 516 65 
3 801 28 299 
3 65 299 439 
3 2 300 804 
3 300 518 66 
3 732 28 301 
3 66 301 440 
3 2 302 635 
3 302 520 67 
3 803 29 303 
3 67 303 441 
3 3 304 806 
3 304 522 68 
3 734 29 305 
3 68 305 442 
3 3 524 636 
3 805 30 306 
3 637 307 808 
3 736 30 308 
3 309 527 69 
3 807 31 310 
3 69 310 444 
3 4 311 810 
3 311 529 70 
3 737 31 312 
3 70 312 445 
3 4 313 638 
3 809 32 314 
3 531 314 446 
3 5 315 812 
3 739 32 316 
3 532 316 447 
3 5 317 639 
3 317 534 533 
3 811 33 318 
3 640 319 814 
3 319 536 71 
3 741 33 320 
3 71 320 448 
3 813 34 322 
3 6 323 816 
3 323 540 72 
3 743 34 324 
3 72 324 449 
3 6 325 641 
3 325 542 73 
3 815 35 326 
3 73 326 450 
3 746 327 818 
3 327 544 74 
3 745 35 328 
3 74 328 451 
3 746 329 642 
3 817 36 330 
3 7 331 820 
3 331 546 75 
3 747 36 332 
3 75 332 453 
3 7 333 547 
3 333 548 76 
3 819 37 334 
3 76 334 454 
3 8 335 822 
3 335 550 77 
3 749 37 336 
3 77 336 455 
3 8 337 643 
3 337 552 78 
3 821 38 338 
3 78 338 456 
3 9 339 824 
3 339 554 79 
3 751 38 340 
3 79 340 457 
3 9 80 644 
3 823 39 341 
3 80 341 458 
3 645 342 826 
3 342 557 459 
3 753 39 343 
3 344 559 81 
3 825 40 345 
3 81 345 460 
3 10 346 828 
3 346 561 560 
3 754 40 347 
3 560 347 461 
3 10 348 153 
3 827 41 349 
3 11 350 830 
3 350 563 82 
3 756 41 351 
3 82 351 463 
3 11 830 646 
3 830 565 83 
3 829 42 352 
3 83 352 464 
3 12 353 832 
3 353 567 84 
3 758 42 354 
3 84 354 465 
3 12 355 648 
3 355 569 85 
3 831 43 356 
3 85 356 466 
3 650 357 834 
3 357 571 86 
3 760 43 358 
3 86 358 467 
3 833 44 360 
3 361 575 87 
3 762 44 362 
3 87 362 468 
3 835 45 364 
3 365 577 88 
3 764 45 366 
3 88 366 470 
3 367 579 89 
3 836 46 368 
3 89 368 471 
3 13 369 839 
3 369 581 90 
3 766 46 370 
3 90 370 472 
3 13 371 653 
3 371 583 91 
3 838 47 372 
3 91 372 473 
3 14 373 841 
3 373 585 92 
3 768 47 374 
3 92 374 474 
3 14 587 496 
3 840 48 375 
3 654 376 843 
3 770 48 377 
3 378 590 93 
3 842 49 379 
3 93 379 476 
3 15 380 845 
3 380 592 94 
3 771 49 381 
3 94 381 477 
3 15 382 656 
3 844 50 383 
3 594 383 478 
3 16 384 847 
3 773 50 385 
3 595 385 479 
3 16 386 657 
3 386 597 596 
3 846 51 387 
3 17 388 849 
3 388 599 95 
3 775 51 389 
3 95 389 480 
3 17 390 658 
3 848 52 391 
3 18 392 851 
3 392 603 96 
3 777 52 393 
3 96 393 481 
3 18 394 659 
3 394 605 97 
3 850 53 395 
3 97 395 482 
3 780 396 853 
3 396 607 98 
3 779 53 397 
3 98 397 483 
3 780 398 660 
3 852 54 399 
3 19 400 855 
3 400 609 99 
3 781 54 401 
3 99 401 485 
3 19 402 610 
3 402 611 100 
3 854 55 403 
3 100 403 486 
3 20 404 857 
3 404 613 101 
3 783 55 405 
3 101 405 487 
3 20 406 661 
3 406 615 102 
3 856 56 407 
3 102 407 488 
3 21 408 859 
3 408 617 103 
3 785 56 409 
3 103 409 489 
3 21 104 662 
3 858 57 410 
3 104 410 490 
3 663 411 861 
3 411 620 491 
3 787 57 412 
3 413 622 105 
3 860 58 414 
3 105 414 492 
3 22 415 863 
3 415 624 623 
3 788 58 416 
3 623 416 493 
3 22 417 106 
3 417 625 106 
3 862 59 418 
3 23 419 865 
3 419 627 107 
3 790 59 420 
3 107 420 494 
3 23 865 665 
3 865 629 108 
3 864 24 421 
3 108 421 495 
3 638 149 150 
3 151 638 547 
3 153 151 152 
3 154 657 610 
3 106 154 664 
3 422 202 667 
3 497 423 265 
3 423 424 672 
3 424 267 674 
3 794 269 680 
3 269 203 682 
3 203 270 684 
3 269 426 270 
3 426 427 687 
3 427 272 689 
3 160 274 695 
3 500 428 275 
3 428 429 702 
3 429 277 704 
3 795 279 710 
3 279 206 712 
3 206 280 714 
3 279 431 280 
3 431 432 717 
3 432 282 719 
3 60 433 208 
3 433 285 667 
3 61 434 209 
3 434 287 113 
3 62 435 210 
3 435 289 669 
3 510 291 114 
3 63 436 212 
3 436 293 671 
3 437 295 115 
3 64 438 213 
3 438 297 672 
3 65 439 214 
3 439 299 116 
3 66 440 215 
3 440 301 674 
3 67 441 216 
3 441 303 117 
3 68 442 217 
3 442 305 676 
3 443 306 118 
3 525 308 425 
3 444 310 119 
3 70 445 219 
3 445 312 111 
3 446 314 120 
3 532 447 220 
3 447 316 680 
3 533 318 121 
3 71 448 222 
3 448 320 682 
3 538 322 122 
3 72 449 224 
3 449 324 684 
3 73 450 225 
3 450 326 123 
3 74 451 226 
3 451 328 686 
3 452 330 124 
3 75 453 228 
3 453 332 687 
3 76 454 229 
3 454 334 125 
3 77 455 230 
3 455 336 689 
3 78 456 231 
3 456 338 126 
3 79 457 232 
3 457 340 691 
3 80 458 555 
3 458 341 127 
3 459 343 692 
3 460 345 128 
3 560 461 234 
3 461 347 694 
3 462 349 129 
3 82 463 235 
3 463 351 695 
3 83 464 236 
3 464 352 130 
3 84 465 237 
3 465 354 697 
3 85 466 238 
3 466 356 131 
3 86 467 239 
3 467 358 699 
3 573 360 132 
3 87 468 241 
3 468 362 701 
3 469 364 133 
3 88 470 242 
3 470 366 702 
3 89 471 243 
3 471 368 134 
3 90 472 244 
3 472 370 704 
3 91 473 245 
3 473 372 135 
3 92 474 246 
3 474 374 706 
3 475 375 136 
3 588 377 430 
3 476 379 137 
3 94 477 248 
3 477 381 112 
3 478 383 138 
3 595 479 249 
3 479 385 710 
3 596 387 139 
3 95 480 251 
3 480 389 712 
3 601 391 140 
3 96 481 252 
3 481 393 714 
3 97 482 253 
3 482 395 141 
3 98 483 254 
3 483 397 716 
3 484 399 142 
3 99 485 256 
3 485 401 717 
3 100 486 257 
3 486 403 143 
3 101 487 258 
3 487 405 719 
3 102 488 259 
3 488 407 144 
3 103 489 260 
3 489 409 721 
3 104 490 618 
3 490 410 145 
3 491 412 722 
3 492 414 146 
3 623 493 262 
3 493 416 724 
3 106 418 147 
3 107 494 263 
3 494 420 725 
3 108 495 264 
3 495 421 148 
3 266 155 423 
3 155 498 424 
3 498 675 267 
3 498 156 675 
3 794 157 156 
3 271 158 426 
3 158 499 427 
3 499 690 272 
3 499 159 690 
3 160 273 204 
3 276 161 428 
3 161 501 429 
3 501 705 277 
3 501 162 705 
3 795 163 162 
3 281 164 431 
3 164 502 432 
3 502 720 282 
3 502 165 720 
3 284 60 503 
3 166 503 208 
3 504 285 60 
3 284 148 504 
3 286 61 505 
3 630 505 209 
3 506 287 61 
3 286 166 506 
3 288 62 507 
3 167 507 210 
3 508 289 62 
3 288 113 508 
3 290 510 509 
3 633 509 211 
3 290 167 510 
3 292 63 511 
3 168 511 212 
3 512 293 63 
3 292 114 512 
3 109 437 731 
3 294 168 437 
3 296 64 513 
3 169 513 213 
3 514 297 64 
3 296 115 514 
3 298 65 515 
3 634 515 214 
3 516 299 65 
3 298 169 516 
3 300 66 517 
3 170 517 215 
3 518 301 66 
3 300 116 518 
3 302 67 519 
3 635 519 216 
3 520 303 67 
3 302 170 520 
3 304 68 521 
3 171 521 217 
3 522 305 68 
3 304 117 522 
3 524 443 523 
3 524 306 443 
3 172 525 218 
3 307 118 525 
3 309 69 526 
3 150 526 444 
3 527 310 69 
3 309 172 527 
3 311 70 528 
3 173 528 219 
3 529 312 70 
3 311 119 529 
3 313 531 530 
3 638 530 446 
3 313 173 531 
3 174 532 220 
3 315 120 532 
3 639 533 221 
3 534 318 533 
3 317 174 534 
3 319 71 535 
3 175 535 222 
3 536 320 71 
3 319 121 536 
3 321 538 537 
3 6 537 223 
3 321 175 538 
3 323 72 539 
3 176 539 224 
3 540 324 72 
3 323 122 540 
3 325 73 541 
3 641 541 225 
3 542 326 73 
3 325 176 542 
3 327 74 543 
3 177 543 226 
3 544 328 74 
3 327 123 544 
3 642 452 227 
3 329 177 452 
3 331 75 545 
3 178 545 228 
3 546 332 75 
3 331 124 546 
3 333 76 547 
3 548 334 76 
3 333 178 548 
3 335 77 549 
3 179 549 230 
3 550 336 77 
3 335 125 550 
3 337 78 551 
3 643 551 231 
3 552 338 78 
3 337 179 552 
3 339 79 553 
3 180 553 232 
3 554 340 79 
3 339 126 554 
3 342 459 556 
3 181 556 233 
3 557 343 459 
3 342 127 557 
3 344 81 558 
3 152 558 460 
3 559 345 81 
3 344 181 559 
3 182 560 234 
3 561 347 560 
3 346 128 561 
3 348 462 757 
3 348 182 462 
3 350 82 562 
3 183 562 235 
3 563 351 82 
3 350 129 563 
3 830 83 564 
3 646 564 236 
3 565 352 83 
3 830 183 565 
3 353 84 566 
3 184 566 237 
3 567 354 84 
3 353 130 567 
3 355 85 568 
3 648 568 238 
3 569 356 85 
3 355 184 569 
3 357 86 570 
3 185 570 239 
3 571 358 86 
3 357 131 571 
3 359 573 572 
3 651 572 240 
3 359 185 573 
3 361 87 574 
3 186 574 241 
3 575 362 87 
3 361 132 575 
3 110 469 765 
3 363 186 469 
3 365 88 576 
3 187 576 242 
3 577 366 88 
3 365 133 577 
3 367 89 578 
3 652 578 243 
3 579 368 89 
3 367 187 579 
3 369 90 580 
3 188 580 244 
3 581 370 90 
3 369 134 581 
3 371 91 582 
3 653 582 245 
3 583 372 91 
3 371 188 583 
3 373 92 584 
3 189 584 246 
3 585 374 92 
3 373 135 585 
3 587 475 586 
3 587 375 475 
3 190 588 247 
3 376 136 588 
3 378 93 589 
3 655 589 476 
3 590 379 93 
3 378 190 590 
3 380 94 591 
3 191 591 248 
3 592 381 94 
3 380 137 592 
3 382 594 593 
3 656 593 478 
3 382 191 594 
3 192 595 249 
3 384 138 595 
3 657 596 250 
3 597 387 596 
3 386 192 597 
3 388 95 598 
3 193 598 251 
3 599 389 95 
3 388 139 599 
3 390 601 600 
3 658 600 778 
3 390 193 601 
3 392 96 602 
3 194 602 252 
3 603 393 96 
3 392 140 603 
3 394 97 604 
3 659 604 253 
3 605 395 97 
3 394 194 605 
3 396 98 606 
3 195 606 254 
3 607 397 98 
3 396 141 607 
3 660 484 255 
3 398 195 484 
3 400 99 608 
3 196 608 256 
3 609 401 99 
3 400 142 609 
3 402 100 610 
3 611 403 100 
3 402 196 611 
3 404 101 612 
3 197 612 258 
3 613 405 101 
3 404 143 613 
3 406 102 614 
3 661 614 259 
3 615 407 102 
3 406 197 615 
3 408 103 616 
3 198 616 260 
3 617 409 103 
3 408 144 617 
3 411 491 619 
3 199 619 261 
3 620 412 491 
3 411 145 620 
3 413 105 621 
3 664 621 492 
3 622 414 105 
3 413 199 622 
3 200 623 262 
3 624 416 623 
3 415 146 624 
3 625 418 106 
3 417 200 625 
3 419 107 626 
3 201 626 263 
3 627 420 107 
3 419 147 627 
3 865 108 628 
3 665 628 264 
3 629 421 108 
3 865 201 629 
3 106 1 630 
3 631 209 632 
3 106 630 631 
3 632 290 633 
3 633 211 294 
3 106 109 802 
3 802 298 634 
3 634 214 2 
3 106 2 635 
3 635 216 3 
3 149 3 636 
3 636 523 637 
3 637 309 150 
3 150 444 4 
3 150 4 638 
3 638 446 5 
3 638 5 639 
3 638 639 640 
3 640 321 6 
3 638 6 641 
3 641 225 746 
3 638 746 642 
3 642 227 7 
3 638 7 547 
3 547 229 8 
3 151 8 643 
3 643 231 9 
3 151 9 644 
3 644 555 645 
3 645 344 152 
3 152 460 10 
3 152 10 153 
3 153 757 11 
3 153 11 646 
3 647 236 12 
3 153 646 647 
3 153 12 648 
3 649 238 650 
3 153 648 649 
3 650 359 651 
3 651 240 363 
3 153 110 837 
3 837 367 652 
3 652 243 13 
3 153 13 653 
3 653 245 14 
3 496 586 654 
3 654 378 655 
3 655 476 15 
3 657 15 656 
3 656 478 16 
3 657 250 17 
3 657 17 658 
3 658 778 18 
3 657 18 659 
3 659 253 780 
3 657 780 660 
3 660 255 19 
3 657 19 610 
3 610 257 20 
3 154 20 661 
3 661 259 21 
3 154 21 662 
3 662 618 663 
3 663 413 664 
3 664 492 22 
3 106 23 665 
3 666 264 1 
3 106 665 666 
3 202 25 667 
3 285 24 668 
3 283 667 668 
3 265 26 669 
3 289 25 670 
3 202 669 670 
3 423 27 671 
3 293 26 671 
3 424 28 672 
3 297 27 673 
3 423 672 673 
3 267 29 674 
3 301 28 674 
3 217 676 675 
3 305 29 676 
3 157 31 677 
3 218 425 677 
3 308 30 425 
3 268 32 678 
3 219 111 678 
3 312 31 679 
3 157 111 679 
3 269 33 680 
3 316 32 681 
3 268 680 681 
3 203 34 682 
3 320 33 683 
3 269 682 683 
3 270 35 684 
3 324 34 685 
3 203 684 685 
3 426 36 686 
3 328 35 686 
3 427 37 687 
3 332 36 688 
3 426 687 688 
3 272 38 689 
3 336 37 689 
3 232 691 690 
3 340 38 691 
3 204 40 692 
3 343 39 692 
3 273 41 693 
3 234 694 693 
3 347 40 694 
3 274 42 695 
3 351 41 696 
3 273 695 696 
3 205 43 697 
3 354 42 698 
3 274 697 698 
3 275 44 699 
3 358 43 700 
3 205 699 700 
3 428 45 701 
3 362 44 701 
3 429 46 702 
3 366 45 703 
3 428 702 703 
3 277 47 704 
3 370 46 704 
3 246 706 705 
3 374 47 706 
3 163 49 707 
3 247 430 707 
3 377 48 430 
3 278 50 708 
3 248 112 708 
3 381 49 709 
3 163 112 709 
3 279 51 710 
3 385 50 711 
3 278 710 711 
3 206 52 712 
3 389 51 713 
3 279 712 713 
3 280 53 714 
3 393 52 715 
3 206 714 715 
3 431 54 716 
3 397 53 716 
3 432 55 717 
3 401 54 718 
3 431 717 718 
3 282 56 719 
3 405 55 719 
3 260 721 720 
3 409 56 721 
3 207 58 722 
3 412 57 722 
3 283 59 723 
3 262 724 723 
3 416 58 724 
3 283 24 725 
3 420 59 725 
3 287 25 726 
3 113 726 289 
3 632 727 288 
3 209 113 727 
3 291 26 728 
3 114 728 293 
3 294 729 292 
3 211 114 729 
3 295 27 730 
3 115 730 297 
3 802 731 296 
3 299 28 732 
3 116 732 301 
3 2 733 300 
3 214 116 733 
3 303 29 734 
3 117 734 305 
3 3 735 304 
3 216 117 735 
3 306 30 736 
3 118 736 308 
3 637 523 307 
3 310 31 737 
3 119 737 312 
3 4 738 311 
3 444 119 738 
3 314 32 739 
3 120 739 316 
3 5 740 315 
3 446 120 740 
3 318 33 741 
3 121 741 320 
3 640 742 319 
3 221 121 742 
3 322 34 743 
3 122 743 324 
3 6 744 323 
3 223 122 744 
3 326 35 745 
3 123 745 328 
3 225 123 746 
3 330 36 747 
3 124 747 332 
3 7 748 331 
3 227 124 748 
3 334 37 749 
3 125 749 336 
3 8 750 335 
3 229 125 750 
3 338 38 751 
3 126 751 340 
3 9 752 339 
3 231 126 752 
3 341 39 753 
3 127 753 343 
3 645 555 342 
3 345 40 754 
3 128 754 347 
3 10 755 346 
3 460 128 755 
3 349 41 756 
3 129 756 351 
3 11 757 350 
3 352 42 758 
3 130 758 354 
3 12 759 353 
3 236 130 759 
3 356 43 760 
3 131 760 358 
3 650 761 357 
3 238 131 761 
3 360 44 762 
3 132 762 362 
3 363 763 361 
3 240 132 763 
3 364 45 764 
3 133 764 366 
3 837 765 365 
3 368 46 766 
3 134 766 370 
3 13 767 369 
3 243 134 767 
3 372 47 768 
3 135 768 374 
3 14 769 373 
3 245 135 769 
3 375 48 770 
3 136 770 377 
3 654 586 376 
3 379 49 771 
3 137 771 381 
3 15 772 380 
3 476 137 772 
3 383 50 773 
3 138 773 385 
3 16 774 384 
3 478 138 774 
3 387 51 775 
3 139 775 389 
3 17 776 388 
3 250 139 776 
3 391 52 777 
3 140 777 393 
3 18 778 392 
3 395 53 779 
3 141 779 397 
3 253 141 780 
3 399 54 781 
3 142 781 401 
3 19 782 400 
3 255 142 782 
3 403 55 783 
3 143 783 405 
3 20 784 404 
3 257 143 784 
3 407 56 785 
3 144 785 409 
3 21 786 408 
3 259 144 786 
3 410 57 787 
3 145 787 412 
3 663 618 411 
3 414 58 788 
3 146 788 416 
3 22 789 415 
3 492 146 789 
3 418 59 790 
3 147 790 420 
3 23 791 419 
3 106 147 791 
3 421 24 792 
3 148 792 285 
3 1 793 284 
3 264 148 793 
3 497 266 423 
3 0 498 266 
3 0 794 498 
3 0 269 794 
3 269 271 426 
3 0 499 271 
3 0 160 499 
3 0 205 160 
3 500 276 428 
3 0 501 276 
3 0 795 501 
3 0 279 795 
3 279 281 431 
3 0 502 281 
3 0 283 502 
3 796 208 25 
3 166 796 287 
3 1 797 286 
3 797 284 166 
3 798 210 26 
3 167 798 291 
3 632 799 290 
3 799 288 167 
3 800 212 27 
3 168 800 295 
3 294 292 168 
3 801 213 28 
3 169 801 299 
3 802 296 169 
3 803 215 29 
3 170 803 303 
3 2 804 302 
3 804 300 170 
3 805 217 30 
3 171 805 306 
3 3 806 524 
3 806 304 171 
3 807 218 31 
3 172 807 310 
3 637 808 309 
3 808 307 172 
3 809 219 32 
3 173 809 314 
3 4 810 313 
3 810 311 173 
3 811 220 33 
3 174 811 318 
3 5 812 317 
3 812 315 174 
3 813 222 34 
3 175 813 322 
3 640 814 321 
3 814 319 175 
3 815 224 35 
3 176 815 326 
3 6 816 325 
3 816 323 176 
3 817 226 36 
3 177 817 330 
3 746 818 329 
3 818 327 177 
3 819 228 37 
3 178 819 334 
3 7 820 333 
3 820 331 178 
3 821 230 38 
3 179 821 338 
3 8 822 337 
3 822 335 179 
3 823 232 39 
3 180 823 341 
3 9 824 80 
3 824 339 180 
3 825 233 40 
3 181 825 345 
3 645 826 344 
3 826 342 181 
3 827 234 41 
3 182 827 349 
3 10 828 348 
3 828 346 182 
3 829 235 42 
3 183 829 352 
3 830 350 183 
3 831 237 43 
3 184 831 356 
3 12 832 355 
3 832 353 184 
3 833 239 44 
3 185 833 360 
3 650 834 359 
3 834 357 185 
3 835 241 45 
3 186 835 364 
3 363 361 186 
3 836 242 46 
3 187 836 368 
3 837 365 187 
3 838 244 47 
3 188 838 372 
3 13 839 371 
3 839 369 188 
3 840 246 48 
3 189 840 375 
3 14 841 587 
3 841 373 189 
3 842 247 49 
3 190 842 379 
3 654 843 378 
3 843 376 190 
3 844 248 50 
3 191 844 383 
3 15 845 382 
3 845 380 191 
3 846 249 51 
3 192 846 387 
3 16 847 386 
3 847 384 192 
3 848 251 52 
3 193 848 391 
3 17 849 390 
3 849 388 193 
3 850 252 53 
3 194 850 395 
3 18 851 394 
3 851 392 194 
3 852 254 54 
3 195 852 399 
3 780 853 398 
3 853 396 195 
3 854 256 55 
3 196 854 403 
3 19 855 402 
3 855 400 196 
3 856 258 56 
3 197 856 407 
3 20 857 406 
3 857 404 197 
3 858 260 57 
3 198 858 410 
3 21 859 104 
3 859 408 198 
3 860 261 58 
3 199 860 414 
3 663 861 413 
3 861 411 199 
3 862 262 59 
3 200 862 418 
3 22 863 417 
3 863 415 200 
3 864 263 24 
3 201 864 421 
3 865 419 201 
